<mxfile modified="2022-10-27T05:49:17.431Z" host="Electron" agent="5.0 (Windows NT 10.0; Win64; x64) AppleWebKit/537.36 (KHTML, like Gecko) draw.io/20.3.0 Chrome/104.0.5112.114 Electron/20.1.3 Safari/537.36" etag="qoPv5mPj7ejX651lFcc_" compressed="false" version="20.3.0" type="device">
  <diagram id="naf-Tx3YEjzBqu_3aPT0" name="Functionality/Configuration">
    <mxGraphModel dx="447" dy="314" grid="1" gridSize="10" guides="1" tooltips="1" connect="1" arrows="1" fold="1" page="1" pageScale="1" pageWidth="827" pageHeight="1169" math="0" shadow="0">
      <root>
        <mxCell id="rTbfJLrGDCR3aCnYn5-e-0" />
        <mxCell id="HSruPu2CeEpyAvJzG3wc-0" value="Notes" parent="rTbfJLrGDCR3aCnYn5-e-0" />
        <mxCell id="Axwy1JYQheVD33W_pT_P-2" style="edgeStyle=orthogonalEdgeStyle;rounded=0;orthogonalLoop=1;jettySize=auto;html=1;endArrow=block;endFill=0;" parent="HSruPu2CeEpyAvJzG3wc-0" source="Axwy1JYQheVD33W_pT_P-0" target="Axwy1JYQheVD33W_pT_P-1" edge="1">
          <mxGeometry relative="1" as="geometry" />
        </mxCell>
        <mxCell id="Axwy1JYQheVD33W_pT_P-0" value="&amp;lt;&amp;lt;actor&amp;gt;&amp;gt;&lt;br&gt;&lt;b&gt;System&lt;br&gt;Admin&lt;br&gt;&lt;/b&gt;" style="text;html=1;align=center;verticalAlign=middle;dashed=0;fillColor=#ffffff;strokeColor=#000000;" parent="HSruPu2CeEpyAvJzG3wc-0" vertex="1">
          <mxGeometry x="160" y="280" width="80" height="40" as="geometry" />
        </mxCell>
        <mxCell id="Axwy1JYQheVD33W_pT_P-1" value="&amp;lt;&amp;lt;actor&amp;gt;&amp;gt;&lt;br&gt;&lt;b&gt;Authorised&lt;br&gt;User&lt;br&gt;&lt;/b&gt;" style="text;html=1;align=center;verticalAlign=middle;dashed=0;fillColor=#ffffff;strokeColor=#000000;" parent="HSruPu2CeEpyAvJzG3wc-0" vertex="1">
          <mxGeometry x="40" y="280" width="80" height="40" as="geometry" />
        </mxCell>
        <mxCell id="Axwy1JYQheVD33W_pT_P-9" value="" style="fontStyle=1;align=left;verticalAlign=top;childLayout=stackLayout;horizontal=1;horizontalStack=0;resizeParent=1;resizeParentMax=0;resizeLast=0;marginBottom=0;" parent="HSruPu2CeEpyAvJzG3wc-0" vertex="1">
          <mxGeometry x="280" y="280" width="120" height="148" as="geometry" />
        </mxCell>
        <mxCell id="Axwy1JYQheVD33W_pT_P-10" value="Configure Host" style="html=1;align=left;spacingLeft=4;verticalAlign=middle;strokeColor=none;fillColor=none;fontStyle=1" parent="Axwy1JYQheVD33W_pT_P-9" vertex="1">
          <mxGeometry width="120" height="20" as="geometry" />
        </mxCell>
        <mxCell id="Axwy1JYQheVD33W_pT_P-11" value="" style="shape=ellipse;" parent="Axwy1JYQheVD33W_pT_P-10" vertex="1">
          <mxGeometry x="1" width="20" height="10" relative="1" as="geometry">
            <mxPoint x="-25" y="5" as="offset" />
          </mxGeometry>
        </mxCell>
        <mxCell id="Axwy1JYQheVD33W_pT_P-12" value="" style="line;strokeWidth=1;fillColor=none;align=left;verticalAlign=middle;spacingTop=-1;spacingLeft=3;spacingRight=3;rotatable=0;labelPosition=right;points=[];portConstraint=eastwest;" parent="Axwy1JYQheVD33W_pT_P-9" vertex="1">
          <mxGeometry y="20" width="120" height="8" as="geometry" />
        </mxCell>
        <mxCell id="Axwy1JYQheVD33W_pT_P-13" value="Diagnostics ConnStr" style="html=1;align=left;spacingLeft=4;verticalAlign=top;strokeColor=none;fillColor=none;fontSize=8;spacing=-2;" parent="Axwy1JYQheVD33W_pT_P-9" vertex="1">
          <mxGeometry y="28" width="120" height="12" as="geometry" />
        </mxCell>
        <mxCell id="TWLPjuASuTpk1IAZZu6P-0" value="Cache ConnStr Template" style="html=1;align=left;spacingLeft=4;verticalAlign=top;strokeColor=none;fillColor=none;fontSize=8;spacing=-2;" vertex="1" parent="Axwy1JYQheVD33W_pT_P-9">
          <mxGeometry y="40" width="120" height="12" as="geometry" />
        </mxCell>
        <mxCell id="TWLPjuASuTpk1IAZZu6P-1" value="DB ConnStr Template" style="html=1;align=left;spacingLeft=4;verticalAlign=top;strokeColor=none;fillColor=none;fontSize=8;spacing=-2;" vertex="1" parent="Axwy1JYQheVD33W_pT_P-9">
          <mxGeometry y="52" width="120" height="12" as="geometry" />
        </mxCell>
        <mxCell id="TWLPjuASuTpk1IAZZu6P-23" value="IdP ConnStr Template" style="html=1;align=left;spacingLeft=4;verticalAlign=top;strokeColor=none;fillColor=none;fontSize=8;spacing=-2;" vertex="1" parent="Axwy1JYQheVD33W_pT_P-9">
          <mxGeometry y="64" width="120" height="12" as="geometry" />
        </mxCell>
        <mxCell id="TWLPjuASuTpk1IAZZu6P-24" value="SMTP MTA Conn Variables" style="html=1;align=left;spacingLeft=4;verticalAlign=top;strokeColor=none;fillColor=none;fontSize=8;spacing=-2;" vertex="1" parent="Axwy1JYQheVD33W_pT_P-9">
          <mxGeometry y="76" width="120" height="12" as="geometry" />
        </mxCell>
        <mxCell id="TWLPjuASuTpk1IAZZu6P-29" value="Malware Detection ConnStr" style="html=1;align=left;spacingLeft=4;verticalAlign=top;strokeColor=none;fillColor=none;fontSize=8;spacing=-2;" vertex="1" parent="Axwy1JYQheVD33W_pT_P-9">
          <mxGeometry y="88" width="120" height="12" as="geometry" />
        </mxCell>
        <mxCell id="TWLPjuASuTpk1IAZZu6P-25" value="UTC Offset (Timezone) ISO-8601" style="html=1;align=left;spacingLeft=4;verticalAlign=top;strokeColor=none;fillColor=none;fontSize=8;spacing=-2;" vertex="1" parent="Axwy1JYQheVD33W_pT_P-9">
          <mxGeometry y="100" width="120" height="12" as="geometry" />
        </mxCell>
        <mxCell id="TWLPjuASuTpk1IAZZu6P-26" value="Default Locale Code (ISO-639-1)" style="html=1;align=left;spacingLeft=4;verticalAlign=top;strokeColor=none;fillColor=none;fontSize=8;spacing=-2;" vertex="1" parent="Axwy1JYQheVD33W_pT_P-9">
          <mxGeometry y="112" width="120" height="12" as="geometry" />
        </mxCell>
        <mxCell id="TWLPjuASuTpk1IAZZu6P-30" value="Default Currency Code (ISO-4217)" style="html=1;align=left;spacingLeft=4;verticalAlign=top;strokeColor=none;fillColor=none;fontSize=8;spacing=-2;" vertex="1" parent="Axwy1JYQheVD33W_pT_P-9">
          <mxGeometry y="124" width="120" height="12" as="geometry" />
        </mxCell>
        <mxCell id="TWLPjuASuTpk1IAZZu6P-27" value="Short/Mid/Long Cache Durations" style="html=1;align=left;spacingLeft=4;verticalAlign=top;strokeColor=none;fillColor=none;fontSize=8;spacing=-2;" vertex="1" parent="Axwy1JYQheVD33W_pT_P-9">
          <mxGeometry y="136" width="120" height="12" as="geometry" />
        </mxCell>
        <mxCell id="-iLF5fzdPyXUNKCIgrzT-8" value="Diagram/Use Case" parent="rTbfJLrGDCR3aCnYn5-e-0" />
        <mxCell id="-iLF5fzdPyXUNKCIgrzT-7" value="Title/Diagram" parent="rTbfJLrGDCR3aCnYn5-e-0" />
        <mxCell id="rTbfJLrGDCR3aCnYn5-e-1" value="About" parent="rTbfJLrGDCR3aCnYn5-e-0" />
        <mxCell id="-iLF5fzdPyXUNKCIgrzT-3" value="" style="endArrow=open;endFill=1;endSize=12;html=1;strokeColor=#000000;fontSize=10;entryX=0;entryY=0.5;entryDx=0;entryDy=0;" parent="rTbfJLrGDCR3aCnYn5-e-1" edge="1">
          <mxGeometry width="160" relative="1" as="geometry">
            <mxPoint x="240" y="300" as="sourcePoint" />
            <mxPoint x="280" y="300" as="targetPoint" />
          </mxGeometry>
        </mxCell>
      </root>
    </mxGraphModel>
  </diagram>
</mxfile>
